<svg viewBox="0 0 1024 1024"
     version="1.1"
     xmlns="http://www.w3.org/2000/svg"
     width="24"
     height="24"
>
    <path d="M784.896 32.256H245.248a143.9744 143.9744 0 0 0-143.872 143.872v709.12a101.6832 101.6832 0 0 0 16.384 55.808 107.8784 107.8784 0 0 0 147.456 35.84L499.2 834.56a35.84 35.84 0 0 1 37.888 0l226.816 140.288a101.6832 101.6832 0 0 0 55.808 16.384 108.3904 108.3904 0 0 0 108.032-108.032V176.128a142.4896 142.4896 0 0 0-142.848-143.872z m72.192 850.944a35.84 35.84 0 0 1-35.84 35.84 29.9008 29.9008 0 0 1-17.92-5.632L576.512 773.12a104.6016 104.6016 0 0 0-111.616 0l-233.984 142.336a34.0992 34.0992 0 0 1-48.64-12.8 36.5056 36.5056 0 0 1-5.632-17.92V176.128a72.448 72.448 0 0 1 72.192-72.192H788.48a71.9872 71.9872 0 0 1 71.68 72.192v707.072z"
          fill=""/>
    <path d="M703.488 373.248a22.3232 22.3232 0 0 0-9.728-9.728 35.84 35.84 0 0 0-15.36-4.096h-135.168V224.256a42.9056 42.9056 0 0 0-4.096-15.36 22.3232 22.3232 0 0 0-9.728-9.728 42.9056 42.9056 0 0 0-15.36-4.096 42.9056 42.9056 0 0 0-15.36 4.096 22.3232 22.3232 0 0 0-9.728 9.728 42.9056 42.9056 0 0 0-4.096 15.36v135.168H350.208a42.9056 42.9056 0 0 0-15.36 4.096 22.3232 22.3232 0 0 0-9.728 9.728 42.9056 42.9056 0 0 0-4.096 15.36 42.9056 42.9056 0 0 0 4.096 15.36 22.3232 22.3232 0 0 0 9.728 9.728 35.84 35.84 0 0 0 15.36 4.096h135.168V552.96a42.9056 42.9056 0 0 0 4.096 15.36 22.3232 22.3232 0 0 0 9.728 9.728 42.9056 42.9056 0 0 0 15.36 4.096 42.9056 42.9056 0 0 0 15.36-4.096 22.3232 22.3232 0 0 0 9.728-9.728 35.84 35.84 0 0 0 4.096-15.36V417.792h135.168a42.9056 42.9056 0 0 0 15.36-4.096 22.3232 22.3232 0 0 0 9.728-9.728 35.84 35.84 0 0 0 4.096-15.36 44.032 44.032 0 0 0-4.608-15.36z"
          fill=""/>
</svg>