<svg viewBox="0 0 1024 1024"
     version="1.1"
     xmlns="http://www.w3.org/2000/svg"
     width="16"
     height="16">
    <path d="M655.36 774.4A21.333333 21.333333 0 0 1 640 810.666667h-85.333333v106.666666a21.333333 21.333333 0 0 1-21.333334 21.333334h-42.666666a21.333333 21.333333 0 0 1-21.333334-21.333334V810.666667H384a21.333333 21.333333 0 0 1-14.933333-36.266667l128-128a21.76 21.76 0 0 1 30.293333 0zM874.666667 469.333333h-725.333334a21.333333 21.333333 0 0 0-21.333333 21.333334v42.666666a21.333333 21.333333 0 0 0 21.333333 21.333334h725.333334a21.333333 21.333333 0 0 0 21.333333-21.333334v-42.666666a21.333333 21.333333 0 0 0-21.333333-21.333334z m-377.6-91.306666a21.76 21.76 0 0 0 30.293333 0l128-128A21.333333 21.333333 0 0 0 640 213.333333h-85.333333V106.666667a21.333333 21.333333 0 0 0-21.333334-21.333334h-42.666666a21.333333 21.333333 0 0 0-21.333334 21.333334V213.333333H384a21.333333 21.333333 0 0 0-14.933333 36.266667z"/>
</svg>
