<svg viewBox="0 0 1024 1024"
     version="1.1"
     xmlns="http://www.w3.org/2000/svg"
     width="16"
     height="16">
    <path d="M655.36 433.066667A21.333333 21.333333 0 0 1 640 469.333333h-85.333333v405.333334a21.333333 21.333333 0 0 1-21.333334 21.333333h-42.666666a21.333333 21.333333 0 0 1-21.333334-21.333333V469.333333H384a21.333333 21.333333 0 0 1-14.933333-36.266666l128-128a21.76 21.76 0 0 1 30.293333 0zM874.666667 128h-725.333334a21.333333 21.333333 0 0 0-21.333333 21.333333v42.666667a21.333333 21.333333 0 0 0 21.333333 21.333333h725.333334a21.333333 21.333333 0 0 0 21.333333-21.333333v-42.666667a21.333333 21.333333 0 0 0-21.333333-21.333333z"/>
</svg>
