<svg viewBox="0 0 1024 1024"
     version="1.1"
     xmlns="http://www.w3.org/2000/svg"
     width="24"
     height="24"
>
    <title>填充颜色</title>
    <path d="M483.4353741496599 880.644557823129L156.76785714285717 553.9753401360546l52.81037414965985-52.8095238095238h547.7142857142857l52.81037414965985 52.8095238095238z"
          fill=""
    />
    <path d="M483.41751700680277 893.1292517006802l-6.2891156462585025-6.21938775510204L144.27551020408168 553.987244897959l6.220238095238096-6.289965986394557 332.92176870748295-332.92261904761904 6.289965986394557 6.220238095238096L822.6292517006802 553.986394557823l-6.220238095238096 6.2891156462585025-332.9923469387755 332.8537414965986zM169.29421768707482 553.987244897959l314.124149659864 314.1232993197279 314.19217687074826-314.124149659864-314.19217687074826-314.19217687074826-314.124149659864 314.19217687074826z"
          fill=""
    />
    <path d="M399.58163265306126 130.86819727891162l130.484693877551 130.48639455782308-12.577380952380954 12.578231292517005L387.0025510204082 143.4455782312926z"
          fill=""
    />
    <path d="M879.7244897959183 725.8350340136054c0 32.25085034013605-26.143707482993193 58.39455782312924-58.39455782312924 58.39455782312924S762.9353741496599 758.0858843537414 762.9353741496599 725.8350340136054s58.39455782312924-110.60629251700679 58.39455782312924-110.60629251700679 58.39455782312924 78.35629251700679 58.39455782312924 110.60629251700679z"
          fill=""
    />
</svg>
