<svg class="icon" viewBox="0 0 1024 1024" version="1.1" xmlns="http://www.w3.org/2000/svg"
     xmlns:xlink="http://www.w3.org/1999/xlink" width="200" height="200">
    <path d="M738.304 847.872H241.664c-58.368 0-95.232-41.984-95.232-108.544V527.36 282.624c0-65.536 38.912-107.52 96.256-108.544h390.144c45.056 0 78.848 29.696 91.136 78.848 2.048 6.144 3.072 13.312 4.096 18.432h40.96c-1.024-84.992-54.272-145.408-129.024-145.408-137.216-1.024-274.432-1.024-411.648 0-70.656 0-126.976 62.464-126.976 142.336 1.024 161.792 1.024 323.584 2.048 485.376 0 79.872 57.344 144.384 128 144.384 137.216 1.024 274.432 1.024 411.648 0 36.864 0 68.608-16.384 95.232-50.176z m-27.648-188.416V757.76c0 18.432 1.024 36.864 19.456 45.056 16.384 7.168 26.624-7.168 36.864-19.456 47.104-60.416 93.184-120.832 139.264-181.248 20.48-26.624 21.504-52.224 1.024-77.824-45.056-57.344-91.136-113.664-139.264-169.984-7.168-8.192-23.552-13.312-32.768-9.216-8.192 4.096-14.336 20.48-15.36 32.768-2.048 27.648-1.024 55.296-1.024 83.968-9.216 1.024-16.384 1.024-22.528 2.048-41.984 5.12-80.896 16.384-117.76 40.96-91.136 62.464-125.952 161.792-136.192 276.48-1.024 15.36-6.144 35.84 12.288 43.008 19.456 7.168 24.576-13.312 32.768-27.648 7.168-11.264 13.312-23.552 21.504-33.792 51.2-69.632 118.784-103.424 201.728-103.424zM211.968 406.528h373.76v-46.08H211.968v46.08z m273.408 83.968H211.968v46.08h273.408v-46.08zM211.968 660.48h194.56v-45.056h-194.56v45.056z"
          fill="#FFFFFF"></path>
    <path d="M738.304 847.872c-26.624 33.792-58.368 49.152-96.256 49.152-137.216 1.024-274.432 1.024-411.648 0-70.656 0-128-64.512-128-144.384 0-160.768 0-322.56 1.024-484.352 0-78.848 56.32-141.312 126.976-142.336 137.216-1.024 274.432-1.024 411.648 0 74.752 0 126.976 60.416 129.024 145.408h-40.96c-1.024-6.144-3.072-12.288-4.096-18.432-12.288-49.152-46.08-78.848-91.136-78.848H244.736c-57.344 0-96.256 43.008-96.256 108.544-1.024 81.92 0 163.84 0 244.736v211.968c0 66.56 36.864 108.544 95.232 108.544h494.592z"
          fill=""></path>
    <path d="M710.656 659.456c-83.968 0-150.528 32.768-201.728 103.424-8.192 10.24-14.336 22.528-21.504 33.792-8.192 13.312-13.312 34.816-32.768 27.648-17.408-7.168-13.312-26.624-12.288-43.008 11.264-113.664 45.056-212.992 136.192-276.48 35.84-24.576 75.776-35.84 117.76-40.96 7.168-1.024 13.312-1.024 22.528-2.048 0-28.672-2.048-56.32 1.024-83.968 1.024-12.288 8.192-29.696 15.36-32.768 8.192-4.096 25.6 1.024 32.768 9.216 47.104 55.296 93.184 112.64 139.264 169.984 20.48 25.6 19.456 51.2-1.024 77.824-46.08 60.416-93.184 120.832-139.264 181.248-9.216 12.288-19.456 26.624-36.864 19.456-18.432-7.168-19.456-26.624-19.456-45.056v-98.304zM747.52 747.52c47.104-61.44 91.136-117.76 133.12-175.104 3.072-5.12 0-20.48-5.12-27.648-17.408-24.576-37.888-47.104-56.32-70.656-20.48-24.576-39.936-49.152-60.416-73.728-1.024 1.024-3.072 1.024-4.096 2.048v100.352c-63.488-1.024-122.88 9.216-174.08 51.2-52.224 43.008-79.872 101.376-92.16 172.032 71.68-80.896 157.696-115.712 260.096-102.4-1.024 39.936-1.024 78.848-1.024 123.904zM211.968 406.528v-46.08h373.76v46.08H211.968zM485.376 490.496v46.08H211.968v-46.08h273.408zM211.968 660.48v-45.056h194.56v45.056h-194.56z"
          fill=""></path>
    <path d="M747.52 747.52V622.592c-102.4-13.312-188.416 21.504-260.096 102.4 12.288-70.656 39.936-129.024 92.16-172.032 51.2-41.984 110.592-52.224 174.08-51.2v-100.352c1.024-1.024 3.072-1.024 4.096-2.048 20.48 24.576 40.96 49.152 60.416 73.728 19.456 23.552 38.912 46.08 56.32 70.656 5.12 7.168 8.192 22.528 5.12 27.648C838.656 629.76 794.624 686.08 747.52 747.52z"
          fill="#FFFFFF"></path>
</svg>