<svg viewBox="0 0 1024 1024"
     version="1.1"
     xmlns="http://www.w3.org/2000/svg"
     width="24"
     height="24"
>
    <path d="M944 224v768H80V224h864m0-32H80a32 32 0 0 0-32 32v768a32 32 0 0 0 32 32h864a32 32 0 0 0 32-32V224a32 32 0 0 0-32-32z"
          fill=""/>
    <path d="M80 512h864v32H80zM80 672h864v32H80zM80 832h864v32H80zM80 352h864v32H80z"
          fill=""/>
    <path d="M304 224v768H272V224zM528 224v768h-32V224zM752 224v768h-32V224z"
          fill=""/>
    <path d="M400 160l96-96H304l96 96z" fill=""/>
    <path d="M432 64m-1.28 0l-61.44 0q-1.28 0-1.28-1.28l0-61.44q0-1.28 1.28-1.28l61.44 0q1.28 0 1.28 1.28l0 61.44q0 1.28-1.28 1.28Z"
          fill=""/>
    <path d="M288 208m16 0l192 0q16 0 16 16l0 768q0 16-16 16l-192 0q-16 0-16-16l0-768q0-16 16-16Z"
          fill=""/>
    <path d="M496 224v768H304V224h192m0-32H304a32 32 0 0 0-32 32v768a32 32 0 0 0 32 32h192a32 32 0 0 0 32-32V224a32 32 0 0 0-32-32z"
          fill=""/>
</svg>