<?xml version="1.0" standalone="no"?><!DOCTYPE svg PUBLIC "-//W3C//DTD SVG 1.1//EN" "http://www.w3.org/Graphics/SVG/1.1/DTD/svg11.dtd">
<svg class="icon" width="200px" height="200.00px" viewBox="0 0 1024 1024" version="1.1"
  xmlns="http://www.w3.org/2000/svg">
  <path d="M64 512h384v64H64z" fill="#909AA9" />
  <path d="M896 320H256c-38.4 0-64-25.6-64-64V192c0-38.4 25.6-64 64-64h640c38.4 0 64 25.6 64 64v64c0 38.4-25.6 64-64 64zM256 192v64h640V192H256z m0-32V192v-32zM896 960H512c-38.4 0-64-25.6-64-64v-64c0-38.4 25.6-64 64-64h384c38.4 0 64 25.6 64 64v64c0 38.4-25.6 64-64 64z m-384-128v64h384v-64H512z m0-32v32-32zM896 640H512c-38.4 0-64-25.6-64-64V512c0-38.4 25.6-64 64-64h384c38.4 0 64 25.6 64 64v64c0 38.4-25.6 64-64 64zM512 512v64h384V512H512z m0-32V512v-32z" fill="#3D4757" />
  <path d="M64 192h128v64H64zM64 832h384v64H64z" fill="#909AA9" />
  <path d="M64 192h64v704H64z" fill="#909AA9" />
</svg>