<svg viewBox="0 0 1024 1024" version="1.1" xmlns="http://www.w3.org/2000/svg"
     width="24" height="24">
    <path d="M871.305648 168.393553H149.142408a31.398402 31.398402 0 0 0-31.398402 31.398402v659.366436a31.398402 31.398402 0 0 0 31.398402 31.398402h722.16324a31.398402 31.398402 0 0 0 31.398401-31.398402v-659.366436a31.398402 31.398402 0 0 0-31.398401-31.398402z m-23.548802 667.216037H172.691209v-400.329622h675.065637z m0-455.276825H172.691209v-156.992009h675.065637z"/>
    <path d="M235.488013 270.438359m7.8496 0l47.097603 0q7.8496 0 7.8496 7.8496l0 47.097603q0 7.8496-7.8496 7.8496l-47.097603 0q-7.8496 0-7.8496-7.8496l0-47.097603q0-7.8496 7.8496-7.8496Z"/>
    <path d="M361.08162 270.438359m7.8496 0l47.097603 0q7.8496 0 7.8496 7.8496l0 47.097603q0 7.8496-7.8496 7.8496l-47.097603 0q-7.8496 0-7.8496-7.8496l0-47.097603q0-7.8496 7.8496-7.8496Z"/>
    <path d="M235.488013 694.316782m15.699201 0l188.39041 0q15.699201 0 15.699201 15.699201l0 23.548801q0 15.699201-15.699201 15.699201l-188.39041 0q-15.699201 0-15.699201-15.699201l0-23.548801q0-15.699201 15.699201-15.699201Z"/>
    <path d="M235.488013 592.271976m15.699201 0l188.39041 0q15.699201 0 15.699201 15.699201l0 23.548802q0 15.699201-15.699201 15.6992l-188.39041 0q-15.699201 0-15.699201-15.6992l0-23.548802q0-15.699201 15.699201-15.699201Z"/>
    <path d="M235.488013 498.076771m15.699201 0l188.39041 0q15.699201 0 15.699201 15.699201l0 23.548801q0 15.699201-15.699201 15.699201l-188.39041 0q-15.699201 0-15.699201-15.699201l0-23.548801q0-15.699201 15.699201-15.699201Z"/>
</svg>
