<svg viewBox="0 0 1088 1024" version="1.1" xmlns="http://www.w3.org/2000/svg"
     width="32" height="32">
    <path d="M326.336 416.384l-41.92-27.968c37.312-41.984 60.608-79.36 69.888-112h60.672a35.008 35.008 0 0 1-9.344 18.688c-4.672 4.672-4.672 9.344-4.672 14.016H554.88v51.2H372.992c-4.672 0-9.344 9.408-18.688 23.424-9.28 13.952-18.624 27.968-27.968 32.64z m-27.968 144.576v-41.984h23.36l4.608-69.952c4.672-32.64 23.296-51.328 60.608-55.936H475.52c41.984 0 65.28 23.296 65.28 60.608v9.344c18.688-51.328 32.64-112 46.656-186.56h60.608v9.28c-4.672 14.016-4.672 32.64-9.28 56h144.576v46.656h-23.36c-13.952 88.576-32.64 163.2-65.28 214.528a387.968 387.968 0 0 0 93.312 102.592l-41.984 41.984a483.584 483.584 0 0 1-83.968-93.312c-14.08 18.688-37.312 51.328-74.624 83.968-4.672 4.672-9.28 9.344-14.08 9.344l-37.248-32.64c-18.624 18.56-37.312 27.968-60.608 27.968H405.632l-9.28-37.312h65.216c18.688 0 28.032-4.672 28.032-18.624H363.648c-37.312-4.672-51.328-18.688-51.328-56l4.672-69.952h-18.624z m69.952 55.936c-4.672 14.016 4.672 23.36 18.56 23.36h28.096c-9.344-37.312-14.08-65.28-18.624-79.36h-28.032v56z m46.656-102.592a2647.04 2647.04 0 0 1-14.08-79.232c-18.56 4.608-23.232 13.952-23.232 27.968v51.2h37.312z m27.968-79.232c4.672 18.56 14.016 46.592 18.56 79.232h32.768v-46.592c0-18.688-9.344-32.64-32.704-32.64H442.88z m0 125.888c4.672 14.016 14.016 41.984 18.56 79.296h23.424v-79.36H442.88z m139.904-55.936l-41.92-14.08v23.36h27.904v41.984h-27.904V635.52h18.56v41.984h-18.56v4.672c0 9.28 0 14.016-4.736 18.56 32.64-23.232 60.672-55.872 88.64-102.528-14.08-23.296-27.968-55.936-41.984-93.248zM620.16 439.68c9.344 37.312 18.688 70.016 32.64 97.92 18.688-46.592 32.64-97.92 41.984-153.856H620.16c-4.608 18.56-9.344 37.312-14.08 51.328h14.08v4.608z"
          fill=""/>
    <path d="M536.192 1024a512 512 0 1 0 0-1024 512 512 0 0 0 0 1024m0-71.488a440.512 440.512 0 1 1 0-881.088 440.576 440.576 0 1 1 0 881.088"
          fill=""/>
</svg>
