<?xml version="1.0" standalone="no"?><!DOCTYPE svg PUBLIC "-//W3C//DTD SVG 1.1//EN" "http://www.w3.org/Graphics/SVG/1.1/DTD/svg11.dtd"><svg class="icon" width="200px" height="200.00px" viewBox="0 0 1024 1024" version="1.1" xmlns="http://www.w3.org/2000/svg"><path d="M434.36 922c0 18.85-13.91 34.6-31.97 37.51v0.49h-270.9C93.87 960 63 928.1 63 888.58V71.94C63 32.64 93.68 0.52 131.48 0.52h760.03c37.64 0 68.48 31.9 68.48 71.42V447.4c0 20.07-16.42 36.5-36.5 36.5-20.07 0-36.5-16.42-36.5-36.5V268.16c0-0.73 0.03-1.45 0.07-2.17l-1.59-190.51-745.95 1.99-2.32 807.73 74.92-0.34c2.58-0.56 5.26-0.86 8-0.86h176.24c0.3 0 0.61 0.02 0.91 0.02l5.12-0.02v0.49c18.06 2.91 31.97 18.66 31.97 37.51zM801 228c0-22-18-40-40-40H265c-22 0-40 18-40 40s18 40 40 40h496c22 0 40-18 40-40zM264.24 397.94c-22 0-40 18-40 40s18 40 40 40H508c22 0 40-18 40-40s-18-40-40-40H264.24zM476 648c0-22-18-40-40-40H263.76c-22 0-40 18-40 40s18 40 40 40H436c22 0 40-18 40-40z m485.94 72.87c-2.26 7.45-7.65 12.26-13.6 12.14h-97.5v246.34c0.16 11.77-3.19 23.13-9.28 31.53-6.09 8.4-14.42 13.12-23.12 13.12h-157.1c-13.15 0-23.85-14.32-24.01-32.12V733.79H527.68c-6.09 0-11.53-5.17-13.6-12.92-2.33-7.52-0.81-16.23 3.76-21.54l220.75-271.02c5.59-7.21 14.38-7.21 19.96 0l200.2 270.62c4.13 5.85 5.37 14.41 3.19 21.94zM882 689L745.74 506.13 587 693h78c2.99-0.09 11.75 3.79 13.88 6.9 2.14 3.11 3.34 7.38 3.34 11.83V975H807v-42l-2-220c0-3-2.52-12.48 4-19 4-4 13.01-4.09 16-4l57-1z" /></svg>