<svg viewBox="0 0 1024 1024" version="1.1" xmlns="http://www.w3.org/2000/svg"
     xmlns:xlink="http://www.w3.org/1999/xlink" width="200" height="200">
    <path d="M0 512c0-59.733333 46.933333-106.666667 106.666667-106.666667s106.666667 46.933333 106.666666 106.666667-46.933333 106.666667-106.666666 106.666667-106.666667-46.933333-106.666667-106.666667zM810.666667 512c0-59.733333 46.933333-106.666667 106.666666-106.666667s106.666667 46.933333 106.666667 106.666667-46.933333 106.666667-106.666667 106.666667-106.666667-46.933333-106.666666-106.666667zM405.333333 512c0-59.733333 46.933333-106.666667 106.666667-106.666667s106.666667 46.933333 106.666667 106.666667-46.933333 106.666667-106.666667 106.666667-106.666667-46.933333-106.666667-106.666667z"
          fill="#8C8C8C"/>
</svg>
