<?xml version="1.0" standalone="no"?><!DOCTYPE svg PUBLIC "-//W3C//DTD SVG 1.1//EN" "http://www.w3.org/Graphics/SVG/1.1/DTD/svg11.dtd">
<svg class="icon" width="200px" height="200.00px" viewBox="0 0 1024 1024" version="1.1"
  xmlns="http://www.w3.org/2000/svg">
  <path d="M848 128A48 48 0 0 1 896 176v672a48 48 0 0 1-48 48h-672A48 48 0 0 1 128 848v-672A48 48 0 0 1 176 128h672zM832 192H192v640h640V192zM512 288a32 32 0 0 1 32 32v160h160a32 32 0 0 1 0 64h-160v160a32 32 0 0 1-64 0v-160h-160a32 32 0 0 1 0-64h160v-160a32 32 0 0 1 32-32z" />
</svg>