<svg viewBox="0 0 1024 1024" version="1.1" xmlns="http://www.w3.org/2000/svg"
     width="200" height="200">
    <path d="M942.08 1024H81.92A81.92 81.92 0 0 1 0 942.08V81.92A81.92 81.92 0 0 1 81.92 0h860.16A81.92 81.92 0 0 1 1024 81.92v860.16A81.92 81.92 0 0 1 942.08 1024zM81.92 68.461714a13.421714 13.421714 0 0 0-13.458286 13.458286v860.16c0 7.424 6.034286 13.421714 13.458286 13.421714h860.16a13.458286 13.458286 0 0 0 13.421714-13.421714V81.92a13.458286 13.458286 0 0 0-13.421714-13.458286H81.92z m376.685714 107.154286a78.738286 78.738286 0 0 0-81.261714 76.141714 78.701714 78.701714 0 0 0 81.261714 78.701715h108.8a78.738286 78.738286 0 0 0 81.298286-76.8 78.738286 78.738286 0 0 0-81.298286-78.08H458.605714z m0 101.741714a25.6 25.6 0 1 1 0-50.578285h108.8a25.6 25.6 0 1 1 0 50.578285H458.605714z m108.8 153.6H458.605714a76.8 76.8 0 1 0 0 153.6h108.8a76.8 76.8 0 0 0 0-153.6z m-108.8 102.4a25.6 25.6 0 0 1 0-51.2h108.8a25.6 25.6 0 1 1 0 51.2H458.605714z m108.8 153.6H458.605714a76.8 76.8 0 1 0 0 153.6h108.8a76.8 76.8 0 0 0 0-153.6z m-108.8 102.4a25.6 25.6 0 0 1 0-51.2h108.8a25.6 25.6 0 1 1 0 51.2H458.605714z m-189.44-51.2a112.64 112.64 0 0 1-76.141714-30.098285 99.218286 99.218286 0 0 1 0-144.64 112.64 112.64 0 0 1 76.8-30.061715h51.2v-51.2H269.165714a158.72 158.72 0 0 0-162.56 153.6 158.72 158.72 0 0 0 162.56 153.6v53.101715l81.298286-76.8-81.298286-76.8v51.2-1.901715z m487.68-512h-51.821714v50.541715h54.381714a112.64 112.64 0 0 1 76.8 30.098285c20.004571 18.724571 31.341714 44.909714 31.378286 72.301715a97.938286 97.938286 0 0 1-34.56 72.96 109.458286 109.458286 0 0 1-76.8 30.098285v-51.2l-81.298286 76.8 81.92 78.701715v-51.2a158.098286 158.098286 0 0 0 162.56-153.6 158.061714 158.061714 0 0 0-162.56-152.941715v-2.56z"/>
</svg>
